<?xml version="1.0" encoding="utf-8"?>
<!-- Generator: Adobe Illustrator 22.1.0, SVG Export Plug-In . SVG Version: 6.00 Build 0)  -->
<svg version="1.1" xmlns="http://www.w3.org/2000/svg" xmlns:xlink="http://www.w3.org/1999/xlink" x="0px" y="0px"
	 viewBox="0 0 240 240" style="enable-background:new 0 0 240 240;" xml:space="preserve">
<style type="text/css">
	.st0{fill:none;stroke:#005EB8;stroke-width:15;stroke-linecap:round;stroke-linejoin:round;stroke-miterlimit:10;}
	.st1{display:none;}
	.st2{display:inline;}
	.st3{fill:#005EB8;}
	.st4{display:inline;fill:#005EB8;}
	.st5{fill:none;stroke:#005EB8;stroke-width:4;stroke-linecap:round;stroke-linejoin:bevel;stroke-miterlimit:10;}
	.st6{fill:#005EB8;}
	.st7{fill:none;stroke:#005EB8;stroke-width:4;stroke-miterlimit:10;}
	.st8{fill:none;stroke:#005EB8;stroke-width:4;stroke-linecap:round;stroke-miterlimit:10;}
	.st9{fill:none;stroke:#005EB8;stroke-width:4;stroke-miterlimit:10;stroke-dasharray:11.6,11.6;}
	.st10{fill:none;stroke:#005EB8;stroke-width:1.0048;stroke-miterlimit:10;}
	.st11{fill:none;stroke:#005EB8;stroke-miterlimit:10;}
	.st12{fill:none;stroke:#005EB8;stroke-width:3.8285;stroke-linecap:round;stroke-linejoin:round;stroke-miterlimit:10;}
	.st13{fill:none;stroke:#005EB8;stroke-width:3.5755;stroke-linecap:round;stroke-linejoin:round;stroke-miterlimit:10;}
	.st14{fill:none;stroke:#005EB8;stroke-width:4.21;stroke-linecap:round;stroke-linejoin:bevel;stroke-miterlimit:10;}
	.st15{fill:none;stroke:#005EB8;stroke-width:3.7776;stroke-linecap:round;stroke-linejoin:round;stroke-miterlimit:10;}
	.st16{fill:none;stroke:#005EB8;stroke-width:3.7048;stroke-linecap:round;stroke-linejoin:round;stroke-miterlimit:10;}
	.st17{fill:none;stroke:#005EB8;stroke-width:3.6211;stroke-miterlimit:10;}
	.st18{fill:none;stroke:#005EB8;stroke-width:4.2481;stroke-linecap:round;stroke-miterlimit:10;}
	.st19{fill:none;stroke:#005EB8;stroke-width:3.4262;stroke-miterlimit:10;}
	.st20{fill:none;stroke:#005EB8;stroke-width:4.2529;stroke-linecap:round;stroke-linejoin:round;stroke-miterlimit:10;}
</style>
<g id="Layer_1">
</g>
<g id="Layer_2">
	<path class="st0" d="M150.9,62.2c10.5,7.9,17.3,20.3,17.3,34.2c0,23.9-20.1,43.4-45,43.4s-45-19.4-45-43.4
		c0-13.1,6.1-24.9,15.7-32.9"/>
	<path class="st0" d="M93.8,61.1c0.5-0.4,0.9-0.8,1.4-1.1"/>
	<path class="st0" d="M60.2,212c0-39.9,28.2-72.3,63-72.3s63,32.4,63,72.3"/>
	<path class="st0" d="M95.2,62.6c-0.7-2.1-1.3-4.1-2.1-6c-1.6-4.2-3.4-8.5-5-12.7C87,41.1,86,38.2,85,35.3c-0.1-0.1-0.1-0.3-0.1-0.5
		c1.6-0.9,3.2-1.9,4.8-2.8c5.6-3.1,11.5-5.5,17.7-7c6.1-1.5,12.2-2.1,18.4-1.9c9.4,0.4,18.4,2.6,26.8,6.7c2.8,1.4,5.5,3,8.2,4.5
		c0.9,0.5,1,0.9,0.7,1.8c-1,2.8-2,5.7-3.1,8.5c-1.9,4.9-3.8,9.7-5.7,14.6c-0.4,1.2-0.8,2.3-1.2,3.7C132.8,57.4,114,57.4,95.2,62.6z"
		/>
	<line class="st0" x1="112.4" y1="40.1" x2="133.9" y2="40.1"/>
	<line class="st0" x1="123" y1="29.3" x2="123" y2="50.8"/>
	<polyline class="st0" points="89.1,151.2 123,194.3 157.2,151.2 	"/>
</g>
</svg>
